<svg xmlns="http://www.w3.org/2000/svg" width="18" height="18" viewBox="0 0 18 18">
  <path id="call-icon" d="M49.133,36.1l-4.24-1.9-.012-.005a1.44,1.44,0,0,0-1.365.126.732.732,0,0,0-.068.05l-2.191,1.868a8.29,8.29,0,0,1-3.495-3.466l1.87-2.224c.018-.023.035-.045.051-.069a1.44,1.44,0,0,0,.119-1.355v-.011L37.9,24.869a1.44,1.44,0,0,0-1.5-.857A5.063,5.063,0,0,0,32,29.041,12.975,12.975,0,0,0,44.96,42a5.063,5.063,0,0,0,5.029-4.4,1.44,1.44,0,0,0-.856-1.5ZM44.96,40.561a11.533,11.533,0,0,1-11.52-11.52,3.618,3.618,0,0,1,3.138-3.6.055.055,0,0,0,0,.011l1.89,4.23-1.86,2.227a.552.552,0,0,0-.051.069,1.44,1.44,0,0,0-.09,1.413,9.722,9.722,0,0,0,4.181,4.15,1.44,1.44,0,0,0,1.418-.1.759.759,0,0,0,.067-.05l2.188-1.867,4.23,1.895h.01a3.619,3.619,0,0,1-3.6,3.146Z" transform="translate(-32 -24.001)" fill="#e28f6d"/>
</svg>
