<svg xmlns="http://www.w3.org/2000/svg" width="18" height="16.615" viewBox="0 0 18 16.615">
  <path id="employee-icon" d="M40.615,26.769H37.154v-.692A2.077,2.077,0,0,0,35.077,24H30.923a2.077,2.077,0,0,0-2.077,2.077v.692H25.385A1.385,1.385,0,0,0,24,28.154V39.231a1.385,1.385,0,0,0,1.385,1.385H40.615A1.385,1.385,0,0,0,42,39.231V28.154A1.385,1.385,0,0,0,40.615,26.769ZM30.231,28.154h5.538V39.231H30.231Zm0-2.077a.692.692,0,0,1,.692-.692h4.154a.692.692,0,0,1,.692.692v.692H30.231Z" transform="translate(-24 -24)" fill="#1a4cbc"/>
</svg>
