<svg xmlns="http://www.w3.org/2000/svg" width="18" height="16.615" viewBox="0 0 18 16.615">
  <path id="meet-icon" d="M36.462,30.924A3.462,3.462,0,1,0,33,34.386a3.462,3.462,0,0,0,3.462-3.462Zm-5.538,0A2.077,2.077,0,1,1,33,33,2.077,2.077,0,0,1,30.923,30.924Zm10.385,8.308H33.692V37.812a6.923,6.923,0,1,0-1.385,0v1.419H24.692a.692.692,0,0,0,0,1.385H41.308a.692.692,0,0,0,0-1.385ZM27.462,30.924A5.538,5.538,0,1,1,33,36.462a5.538,5.538,0,0,1-5.538-5.538Z" transform="translate(-24 -24.001)" fill="#83a5f1"/>
</svg>
